<?xml version="1.0" standalone="no"?>
<!DOCTYPE svg PUBLIC "-//W3C//DTD SVG 1.1//EN" "http://www.w3.org/Graphics/SVG/1.1/DTD/svg11.dtd" >
<svg xmlns="http://www.w3.org/2000/svg">
<metadata></metadata>
<defs>
<font id="scalasanssccomppro-boldRg" horiz-adv-x="1126" >
<font-face units-per-em="2048" ascent="1503" descent="-545" />
<missing-glyph horiz-adv-x="512" />
<glyph unicode="&#xfb01;" horiz-adv-x="1583" d="M184 0v1006h682v-187h-438v-223h360v-186h-360v-410h-244zM1143 0v1006h245v-1006h-245z" />
<glyph unicode="&#xfb02;" horiz-adv-x="1841" d="M184 0v1006h682v-187h-438v-223h360v-186h-360v-410h-244zM1128 0v1006h244v-818h414v-188h-658z" />
<glyph unicode="&#xfb03;" horiz-adv-x="2531" d="M184 0v1006h682v-187h-438v-223h360v-186h-360v-410h-244zM1132 0v1006h682v-187h-438v-223h360v-186h-360v-410h-244zM2091 0v1006h245v-1006h-245z" />
<glyph unicode="&#xfb04;" horiz-adv-x="2789" d="M184 0v1006h682v-187h-438v-223h360v-186h-360v-410h-244zM1132 0v1006h682v-187h-438v-223h360v-186h-360v-410h-244zM2076 0v1006h244v-818h414v-188h-658z" />
<glyph horiz-adv-x="2048" />
<glyph horiz-adv-x="2048" />
<glyph unicode="&#xd;" horiz-adv-x="512" />
<glyph unicode=" "  horiz-adv-x="512" />
<glyph unicode="&#x09;" horiz-adv-x="512" />
<glyph unicode="&#xa0;" horiz-adv-x="512" />
<glyph unicode="!" horiz-adv-x="540" d="M119 123q0 68 47 116t115 48t114.5 -48t46.5 -116t-47 -116t-114 -48q-68 0 -115 48t-47 116zM152 1507h258l-13 -1108h-233z" />
<glyph unicode="&#x22;" horiz-adv-x="843" d="M172 887v465h170v-465h-170zM502 887v465h170v-465h-170z" />
<glyph unicode="#" d="M-43 389l37 199h231l39 192h-233l45 207h233l70 361h219l-70 -361h197l68 361h223l-68 -361h221l-45 -207h-223l-35 -192h226l-37 -199h-228l-73 -389h-222l72 389h-198l-74 -389h-221l75 389h-229zM446 588h195l39 192h-199z" />
<glyph unicode="$" horiz-adv-x="1132" d="M66 90l104 207q51 -29 88 -47.5t69.5 -29.5t67.5 -17t82 -10v399l-209 135q-92 59 -133 134t-41 167q0 152 98.5 243t284.5 107v115h144v-115l86 -6q29 -2 61 -8q27 -4 50.5 -10t47 -14.5t51 -19.5t62.5 -30l-115 -196q-43 20 -73.5 34.5t-56 22.5t-52.5 12t-61 8v-360 l77 -51q53 -35 97.5 -64.5t78.5 -58.5q146 -115 146 -277q0 -109 -56.5 -198.5t-154.5 -136.5q-39 -18 -76 -28.5t-112 -23.5v-114h-144v114q-37 4 -63.5 7.5t-48 7.5t-41 8t-41.5 10q-49 12 -93.5 29.5t-123.5 54.5zM348 1049q0 -39 27.5 -70t101.5 -78v270 q-68 -16 -98.5 -45.5t-30.5 -76.5zM621 193q66 8 105.5 45t39.5 92q0 47 -34 87t-111 85v-309z" />
<glyph unicode="%" horiz-adv-x="1740" d="M70 1014q0 74 28.5 139.5t76.5 114.5t113.5 77.5t139.5 28.5t139.5 -28.5t114.5 -77.5t76.5 -114.5t27.5 -139.5t-27.5 -139.5t-76.5 -114.5t-114.5 -77t-139.5 -28t-139.5 28t-113.5 77t-76.5 114.5t-28.5 139.5zM184 -90l1159 1493h193l-1157 -1493h-195zM227 1014 q0 -84 58.5 -142.5t142.5 -58.5q86 0 143.5 58.5t57.5 142.5t-57.5 142t-143.5 58q-84 0 -142.5 -58t-58.5 -142zM954 332q0 74 28 139.5t77 114.5t114.5 76.5t139.5 27.5t139.5 -27.5t113.5 -76.5t76.5 -114.5t28.5 -139.5t-28.5 -139.5t-76.5 -113.5t-114 -77t-139 -29 q-74 0 -139.5 29t-114.5 77t-77 113.5t-28 139.5zM1112 332q0 -84 57.5 -142.5t143.5 -58.5q84 0 142 58.5t58 142.5q0 86 -58 143t-142 57q-86 0 -143.5 -57t-57.5 -143z" />
<glyph unicode="&#x26;" horiz-adv-x="1435" d="M37 342q0 104 60.5 198.5t193.5 196.5l61 47l-96 121q-53 68 -76.5 126.5t-23.5 123.5q0 82 30.5 149.5t88 113.5t138.5 72t181 26q193 0 300 -78t107 -217q0 -129 -147 -230l-117 -78l-102 129l78 68q41 37 41 84q0 55 -48.5 94t-117.5 39q-80 0 -130 -46t-50 -118 q0 -51 26.5 -107.5t85.5 -127.5l361 -451q25 37 37 59.5t22 57.5q14 41 20.5 77t10.5 101h256q-4 -53 -8.5 -93t-11.5 -72t-16 -58.5t-22 -52.5q-12 -25 -24 -44.5t-28.5 -41t-39 -46t-55.5 -55.5q53 -59 77.5 -78.5t53.5 -19.5q35 0 62.5 26.5t62.5 96.5l174 -127 q-33 -63 -55.5 -95t-57.5 -61q-88 -76 -202 -76q-80 0 -139.5 34t-131.5 120q-55 -41 -81.5 -58.5t-55.5 -31.5q-59 -31 -132 -48.5t-148 -17.5q-92 0 -169 27t-130.5 75t-83 115.5t-29.5 151.5zM307 387q0 -82 51.5 -139.5t122.5 -57.5q23 0 49.5 7.5t53.5 17.5 q35 16 61.5 34.5t67.5 59.5l-258 309l-64 -65q-47 -47 -65.5 -83t-18.5 -83z" />
<glyph unicode="'" horiz-adv-x="514" d="M172 887v465h170v-465h-170z" />
<glyph unicode="(" horiz-adv-x="632" d="M166 416q0 166 24.5 318.5t79.5 326.5q14 45 26.5 80t25 66.5t29 65.5t38.5 79h219q-25 -53 -41 -94t-29.5 -77t-24.5 -74t-26 -85q-43 -154 -63.5 -303.5t-20.5 -302.5q0 -154 19.5 -299.5t64.5 -306.5q14 -55 26.5 -94.5t26 -75t30 -71.5t38.5 -83h-219 q-23 39 -38 68.5t-27.5 60.5t-24.5 66.5t-29 89.5q-29 90 -48 171t-31.5 158.5t-18.5 154.5t-6 161z" />
<glyph unicode=")" horiz-adv-x="632" d="M35 -514q25 53 41 94t29.5 77t24.5 74t26 85q43 154 63.5 303t20.5 303t-19.5 299t-64.5 307q-16 55 -27.5 94t-25 75t-30 72t-38.5 83h219q23 -41 38 -71t27.5 -60.5t25.5 -66.5t30 -89q27 -90 46 -171t31.5 -158t18.5 -154.5t6 -159.5q0 -168 -23.5 -319.5 t-78.5 -325.5q-14 -47 -26.5 -81t-26 -65.5t-30 -65.5t-38.5 -79h-219z" />
<glyph unicode="*" horiz-adv-x="1024" d="M43 983l68 209l282 -111l-57 -176zM158 637l190 233l150 -108l-162 -256zM403 1403h222l-19 -303h-184zM528 762l150 108l192 -233l-180 -129zM631 1081l282 111l68 -211l-293 -76z" />
<glyph unicode="+" d="M78 401v168h401v402h168v-402h402v-168h-402v-401h-168v401h-401z" />
<glyph unicode="," horiz-adv-x="514" d="M84 242q31 14 52.5 22t40 13.5t37.5 7.5t44 2q84 0 122 -41t38 -129q0 -94 -46 -216t-124 -239h-148q12 23 20.5 40t15.5 33.5t14 35.5l14 43q8 27 13 44t9 33.5t6.5 34t4.5 41.5z" />
<glyph unicode="-" horiz-adv-x="565" d="M70 356v228h426v-228h-426z" />
<glyph unicode="." horiz-adv-x="514" d="M94 137q0 70 48 117t116 47t115 -47t47 -117q0 -68 -47 -116t-115 -48t-116 48.5t-48 115.5z" />
<glyph unicode="/" horiz-adv-x="837" d="M37 -502l516 1854h244l-514 -1854h-246z" />
<glyph unicode="0" horiz-adv-x="1167" d="M37 494q0 111 43 207t116.5 167.5t173 113.5t214.5 42q113 0 213 -42t173.5 -113.5t116.5 -167.5t43 -207t-43 -207.5t-116.5 -168t-174 -113.5t-212.5 -42q-115 0 -214.5 42t-173 113.5t-116.5 168t-43 207.5zM285 494q0 -63 23.5 -120t63.5 -99t95 -66.5t117 -24.5 q61 0 116.5 24.5t95.5 66.5t63.5 99t23.5 120t-23.5 119.5t-63.5 97.5t-95.5 65.5t-116.5 24.5t-116.5 -24.5t-95.5 -65.5t-63.5 -97.5t-23.5 -119.5z" />
<glyph unicode="1" horiz-adv-x="798" d="M82 799v205h475v-1004h-244v799h-231z" />
<glyph unicode="2" horiz-adv-x="1011" d="M47 799q35 31 61.5 52t49 36.5t43 29t45.5 25.5q68 35 144.5 56.5t141.5 21.5q150 0 241 -83t91 -222q0 -53 -13 -95t-43 -82t-78 -84t-118 -106l-75 -65q-29 -27 -58.5 -44.5t-85.5 -45.5h555v-193h-889v154l412 335q80 66 111.5 111t31.5 94q0 51 -32.5 85t-81.5 34 q-23 0 -55.5 -8t-59.5 -19q-25 -12 -47.5 -24t-46 -28.5t-51 -38t-64.5 -52.5z" />
<glyph unicode="3" horiz-adv-x="880" d="M31 874q29 20 51 34t39 24q158 90 301 90t226 -83t83 -228q0 -72 -22.5 -131.5t-65.5 -100.5q-29 -27 -61.5 -45t-100.5 -47q145 -16 227.5 -104.5t82.5 -229.5q0 -111 -44.5 -202t-125 -155.5t-194.5 -100t-253 -35.5h-57q-33 0 -74 2v194h80q49 0 86 2t65.5 6.5 t53 10.5t47.5 14q37 14 69.5 41t55 60.5t36 71.5t13.5 77q0 193 -236 192h-141v193q168 47 238.5 105.5t70.5 154.5q0 57 -30.5 92t-79.5 35q-43 0 -94.5 -21.5t-143.5 -80.5z" />
<glyph unicode="4" horiz-adv-x="1077" d="M14 0v154l645 864h181v-825h204v-193h-204v-438h-234v438h-592zM285 193h321v450z" />
<glyph unicode="5" horiz-adv-x="845" d="M86 -231q29 0 49.5 1t34.5 1q53 2 90 4t64.5 8t49 14t44.5 23q53 33 85 91t32 130q0 231 -281 256l-143 12v695h632v-205h-399v-297l90 -13q164 -23 256 -135.5t92 -290.5q0 -262 -194 -401q-72 -51 -168 -80q-33 -10 -63.5 -16t-69.5 -9t-87 -5.5t-114 -2.5v220z" />
<glyph unicode="6" horiz-adv-x="1114" d="M82 575q0 176 53 333t158 280q98 119 217 171t289 52q31 0 62.5 -2t96.5 -6v-205q-43 4 -68.5 6t-70.5 2q-127 0 -200.5 -26.5t-135.5 -92.5q-33 -35 -54 -64.5t-36.5 -65t-28 -79.5t-24.5 -106q25 14 43 24.5t34.5 17.5t34 14.5t40.5 13.5q53 16 103 24t97 8 q82 0 150.5 -30.5t118 -86t76 -132t26.5 -168.5q0 -111 -36 -203t-100.5 -158.5t-154.5 -103.5t-197 -37q-111 0 -201.5 44t-155 126t-100.5 195.5t-36 254.5zM315 567q6 -63 13.5 -107t16.5 -78t22.5 -60.5t33.5 -53.5q35 -47 84.5 -74.5t102.5 -27.5q49 0 90 21.5 t71.5 58.5t47 88t16.5 110q0 98 -54 159t-145 61q-20 0 -52 -4.5t-64 -14.5q-49 -12 -86 -27.5t-97 -50.5z" />
<glyph unicode="7" horiz-adv-x="952" d="M47 799v205h838v-166l-285 -697q-12 -31 -32.5 -76t-49.5 -104q-35 -72 -59.5 -120t-48 -89t-51 -85t-68.5 -105l-205 129q29 43 50.5 75.5t35.5 55.5q25 43 54.5 96t58 109.5t54.5 113t44 103.5l217 555h-553z" />
<glyph unicode="8" horiz-adv-x="1021" d="M47 307q0 201 197 348l123 93l-111 79q-27 20 -46.5 38t-35.5 34q-33 35 -52.5 89t-19.5 108q0 74 31 134t87 104t135 68.5t173 24.5q86 0 158 -21.5t124 -60t81 -93t29 -117.5q0 -174 -156 -291l-111 -82l197 -172q55 -47 90 -120t35 -151t-35 -142t-99.5 -110.5 t-153.5 -72t-195 -25.5q-98 0 -180.5 24.5t-140.5 68.5t-91 106.5t-33 138.5zM291 315q0 -33 18.5 -62.5t48 -53t68.5 -38t80 -14.5q92 0 154.5 52.5t62.5 130.5q0 72 -123 188l-92 86l-137 -133q-80 -80 -80 -156zM354 1112q0 -39 21.5 -76t70.5 -84l64 -61l63 61 q95 90 95 172q0 61 -41 96t-117 35q-70 0 -113 -39.5t-43 -103.5z" />
<glyph unicode="9" horiz-adv-x="1114" d="M70 522q0 111 35.5 203t100 158.5t155 103.5t196.5 37q113 0 204 -44t155.5 -125t99.5 -196t35 -256q0 -176 -53.5 -332.5t-155.5 -279.5q-98 -119 -217 -171t-289 -52q-33 0 -64.5 2t-97.5 6v207q45 -6 70.5 -7t70.5 -1q127 0 201 25.5t135 90.5q31 35 53.5 65t38 65.5 t26.5 79.5t24 106q-25 -14 -42.5 -23.5t-34 -17.5t-33.5 -14.5t-40 -12.5q-104 -33 -203 -33q-82 0 -149.5 31t-116.5 86.5t-76.5 131t-27.5 167.5zM319 535q0 -98 54.5 -159t146.5 -61q20 0 51 5.5t64 13.5q25 6 46 13t41.5 16.5t43 21t53.5 29.5q-6 63 -13 107t-17.5 77 t-23.5 59.5t-34 55.5q-35 47 -84 73.5t-102 26.5q-49 0 -90 -20.5t-72 -57.5t-47.5 -88t-16.5 -112z" />
<glyph unicode=":" horiz-adv-x="514" d="M94 137q0 70 48 117t116 47t115 -47t47 -117q0 -68 -47 -116t-115 -48t-116 48.5t-48 115.5zM94 815q0 68 48 116t116 48t115 -48t47 -116t-47 -116t-115 -48t-116 48.5t-48 115.5z" />
<glyph unicode=";" horiz-adv-x="514" d="M84 242q31 14 52.5 22t40 13.5t37.5 7.5t44 2q84 0 122 -41t38 -129q0 -94 -46 -216t-124 -239h-148q12 23 20.5 40t15.5 33.5t14 35.5l14 43q8 27 13 44t9 33.5t6.5 34t4.5 41.5zM94 815q0 68 47 116t115 48t115 -48t47 -116t-47 -116t-115 -48t-115 48.5t-47 115.5z " />
<glyph unicode="&#x3c;" d="M80 430v111l967 430v-164l-728 -322l728 -321v-164z" />
<glyph unicode="=" d="M51 223v168h1024v-168h-1024zM51 557v168h1024v-168h-1024z" />
<glyph unicode="&#x3e;" d="M80 0v164l727 321l-727 322v164l967 -430v-111z" />
<glyph unicode="?" horiz-adv-x="856" d="M121 1288l51 232q59 -6 104.5 -14.5t81 -18.5t67.5 -24.5t67 -35.5q137 -82 215.5 -219t78.5 -295q0 -78 -26.5 -141t-77.5 -106q-39 -31 -83 -43.5t-118 -12.5h-53v-194h-244v395h334q8 41 11 67.5t3 55.5q0 152 -106.5 243t-304.5 111zM137 123q0 68 48 116t116 48 q66 0 114 -48t48 -116t-48 -116t-114 -48q-68 0 -116 48t-48 116z" />
<glyph unicode="@" horiz-adv-x="2048" d="M201 477q0 172 67.5 324.5t182 268.5t267 183.5t322.5 67.5q168 0 316.5 -62.5t261.5 -169t178.5 -247.5t65.5 -301q0 -123 -38 -225.5t-105.5 -177.5t-161 -116.5t-203.5 -41.5q-125 0 -182.5 55t-57.5 176q0 18 2 37q4 16 6 28q-25 -43 -43 -73q-20 -31 -42.5 -55.5 t-48 -44t-58.5 -40.5q-84 -51 -148 -51q-41 0 -76.5 24.5t-61.5 67.5t-40 102.5t-14 129.5q0 135 39 253t107.5 205t161.5 137t200 50q31 0 61.5 -3t66.5 -10t80 -18.5t105 -29.5l-113 -615q-4 -20 -7 -41.5t-3 -36.5q0 -88 101 -88q61 0 113 30t91 81t60.5 121.5 t21.5 152.5q0 125 -49 234.5t-135 192.5t-200.5 131t-243.5 48q-133 0 -252 -52t-208 -141t-141.5 -208t-52.5 -254q0 -131 51.5 -248.5t139.5 -206t204.5 -139.5t247.5 -51q27 0 53.5 2t55.5 6q25 4 45 9.5t39.5 11.5t42 15t51.5 24l68 -177q-23 -10 -40.5 -17t-29.5 -11 q-31 -12 -69 -22.5t-77.5 -17.5t-78.5 -11t-72 -4q-164 0 -313.5 68.5t-263 183t-180 267t-66.5 320.5zM815 362q0 -66 11.5 -93t39.5 -27q23 0 62 28.5t73 71.5q31 37 66 102q29 55 51.5 117t30.5 98l22 109q-53 18 -120 18q-47 0 -90 -33.5t-75 -92t-51.5 -135 t-19.5 -163.5z" />
<glyph unicode="A" horiz-adv-x="1218" d="M4 0l490 1352h231l489 -1352h-270l-106 334h-453l-111 -334h-270zM455 553h313l-158 489z" />
<glyph unicode="B" horiz-adv-x="1210" d="M172 0v1352h490q131 0 206.5 -19.5t130.5 -70.5q49 -43 78 -110t29 -132q0 -57 -20.5 -113.5t-57.5 -99.5q-45 -51 -94 -74q-43 -20 -115 -24q145 -8 232 -97q90 -92 90 -252q0 -176 -106.5 -268t-311.5 -92h-551zM442 207h168q59 0 93 5t63 19q43 23 67.5 64t24.5 94 q0 92 -63.5 141.5t-184.5 49.5h-168v-373zM442 799h154q223 0 223 176q0 82 -55 127t-154 45h-168v-348z" />
<glyph unicode="C" horiz-adv-x="1239" d="M51 682q0 147 53.5 277.5t153.5 228.5q102 100 222 144t288 44q129 0 232.5 -31.5t191.5 -97.5l-98 -205q-131 94 -312 95q-98 0 -180 -33t-141.5 -91.5t-92 -139t-32.5 -177.5q0 -109 35 -197.5t98 -152t153.5 -97.5t200.5 -34q72 0 139.5 14.5t157.5 49.5l47 -218 q-33 -14 -56.5 -24t-43.5 -17.5t-39.5 -12.5t-42.5 -11q-102 -23 -217 -23q-160 0 -276.5 41t-212.5 127q-109 98 -168.5 239.5t-59.5 301.5z" />
<glyph unicode="D" horiz-adv-x="1456" d="M172 0v1352h502q193 0 320.5 -46t228.5 -153q88 -94 135 -217t47 -256q0 -135 -48 -260t-138 -221q-186 -199 -547 -199h-500zM442 227h205q231 0 355 117t124 334q0 117 -42 215t-113 151q-53 41 -133 60.5t-191 19.5h-205v-897z" />
<glyph unicode="E" horiz-adv-x="1103" d="M184 0v1352h824v-219h-566v-334h463v-219h-463v-361h592v-219h-850z" />
<glyph unicode="F" horiz-adv-x="1069" d="M184 0v1352h838v-219h-580v-349h476v-217h-476v-567h-258z" />
<glyph unicode="G" horiz-adv-x="1449" d="M63 678q0 154 56.5 285t167.5 231q104 96 228 138t300 42q74 0 145.5 -7t137.5 -24q25 -6 46 -12t43.5 -14t49.5 -19.5t61 -25.5l-61 -215q-37 14 -66 22l-45 17q-145 49 -278 49q-115 0 -209 -34t-161.5 -93.5t-105.5 -143t-38 -184.5q0 -104 41 -193t112.5 -155 t169 -102.5t209.5 -36.5q45 0 81 6t95 22v373h258v-553l-137 -33q-53 -12 -97 -20t-84 -14.5t-78 -8.5t-81 -2q-168 0 -308 51.5t-240.5 144.5t-156 222t-55.5 287z" />
<glyph unicode="H" horiz-adv-x="1579" d="M184 0v1352h258v-541h695v541h258v-1352h-258v580h-695v-580h-258z" />
<glyph unicode="I" horiz-adv-x="614" d="M178 0v1352h258v-1352h-258z" />
<glyph unicode="J" horiz-adv-x="614" d="M0 -348q27 41 43 68.5t28.5 49t21.5 40t22 40.5q35 74 50 153t15 190v1159h256v-1391q-14 -45 -25.5 -76.5t-23.5 -59.5t-26.5 -55.5t-34.5 -60.5q-16 -25 -28.5 -45t-28 -41.5t-34 -45t-42.5 -54.5z" />
<glyph unicode="K" horiz-adv-x="1169" d="M172 0v1352h258v-631l424 631h297l-465 -658l490 -694h-295l-451 643v-643h-258z" />
<glyph unicode="L" horiz-adv-x="1013" d="M184 0v1352h258v-1133h553v-219h-811z" />
<glyph unicode="M" horiz-adv-x="1798" d="M197 0v1352h309l360 -965q10 -29 16.5 -47t10.5 -55q6 45 10 61t15 41l374 965h310v-1352h-246v991q-4 -27 -6 -44t-7.5 -35.5t-13.5 -44t-24 -68.5l-310 -799h-231l-283 784q-10 29 -17 50.5t-11 44t-9.5 50t-13.5 70.5v-999h-233z" />
<glyph unicode="N" horiz-adv-x="1554" d="M197 0v1352h297l546 -856q29 -47 44.5 -81t27.5 -67v1004h244v-1364h-271l-579 874l-45 82q-6 12 -10.5 21.5t-8.5 25.5v-991h-245z" />
<glyph unicode="O" horiz-adv-x="1562" d="M63 676q0 156 52.5 285t146.5 221t227.5 143t292.5 51q160 0 292 -51t226.5 -143t146.5 -221t52 -285q0 -154 -53 -283t-148.5 -222t-226.5 -145.5t-289 -52.5t-290 52.5t-227 145.5t-148.5 222t-53.5 283zM338 676q0 -102 34 -190.5t93 -152t140 -99t177 -35.5 q94 0 176 35.5t140.5 99t92.5 152t34 190.5t-34 189t-92.5 151.5t-140 100.5t-176.5 36q-96 0 -177 -36t-140 -100.5t-93 -151.5t-34 -189z" />
<glyph unicode="P" horiz-adv-x="1138" d="M184 0v1352h463q133 0 214 -26t145 -85q114 -115 114 -303q0 -113 -39 -206t-114 -159q-72 -61 -166 -88.5t-234 -27.5q-39 0 -64.5 1t-60.5 5v-463h-258zM442 682l66 -2q23 0 36 -1t21 -1q152 0 220.5 57.5t68.5 182.5q0 111 -55.5 163t-175.5 52h-181v-451z" />
<glyph unicode="Q" horiz-adv-x="1562" d="M63 676q0 156 52.5 285t146.5 221t227.5 143t292.5 51q160 0 292 -51t226.5 -143t146.5 -221t52 -285q0 -295 -190 -498q-35 -37 -63.5 -61.5t-61.5 -45t-72 -37t-94 -34.5q18 -37 32.5 -57.5t43.5 -48.5q47 -47 96 -84q16 -12 31.5 -21.5t34 -20t41 -22.5t55.5 -29 l-219 -194q-43 33 -75 57.5t-59 48.5l-53 47q-27 23 -57 54l-62 61q-29 29 -53 57q-16 18 -29.5 34t-24.5 31t-23.5 32.5t-26.5 42.5q-63 4 -98 9t-70 17q-98 33 -178 97.5t-138.5 151.5t-90.5 192.5t-32 220.5zM338 676q0 -102 34 -190.5t93 -152t140 -99t177 -35.5 q94 0 176 35.5t140.5 99t92.5 152t34 190.5t-34 189t-92.5 151.5t-140 100.5t-176.5 36q-96 0 -177 -36t-140 -100.5t-93 -151.5t-34 -189z" />
<glyph unicode="R" horiz-adv-x="1196" d="M184 0v1352h451q74 0 129 -5.5t98 -16.5t76 -30.5t63 -48.5q111 -102 111 -293q0 -156 -74 -253q-18 -25 -37.5 -43.5t-44 -33t-55.5 -25.5t-74 -23l336 -580h-282l-310 541h-129v-541h-258zM442 760h168q123 0 179.5 45t56.5 147q0 98 -54.5 139.5t-181.5 41.5h-168 v-373z" />
<glyph unicode="S" horiz-adv-x="1093" d="M43 117l109 237q37 -20 64.5 -34.5t49 -24.5t40 -18.5t38.5 -16.5q51 -18 102.5 -28.5t92.5 -10.5q90 0 143 37t53 98q0 43 -26.5 76t-92.5 70l-208 119q-90 51 -150.5 95t-96.5 88t-51.5 90t-15.5 101q0 51 14.5 100.5t38.5 88.5q35 53 101 100q37 25 72.5 42t75.5 28.5 t86 15.5t106 4q68 0 129 -8t125 -27q25 -8 45 -15t41.5 -15.5t46 -19.5t59.5 -27l-102 -232q-217 96 -350 96q-92 0 -145.5 -33.5t-53.5 -91.5q0 -43 28.5 -73.5t100.5 -69.5q313 -168 406 -260q43 -43 67.5 -106.5t24.5 -135.5q0 -182 -125 -282.5t-350 -100.5q-31 0 -62 2 t-59 7q-37 4 -66 10t-59.5 16t-67.5 26.5t-90 41.5z" />
<glyph unicode="T" horiz-adv-x="1103" d="M16 1133v219h1069v-219h-405v-1133h-258v1133h-406z" />
<glyph unicode="U" horiz-adv-x="1433" d="M150 528v824h256v-838q0 -301 319 -301q147 0 224 77t77 224v838h258v-824q0 -92 -9 -161.5t-30.5 -123t-57.5 -94t-89 -77.5q-74 -51 -164 -75t-217 -24q-129 0 -217 22.5t-166 76.5q-53 37 -88 77.5t-56.5 94t-30.5 123t-9 161.5z" />
<glyph unicode="V" horiz-adv-x="1193" d="M4 1352h283l309 -914q4 -16 8 -31.5t6 -31.5q0 14 2 27.5t11 35.5l295 914h270l-502 -1391h-180z" />
<glyph unicode="W" horiz-adv-x="1769" d="M4 1352h270l349 -1018l168 450l-220 568h232l102 -271l90 271h219l-206 -541l194 -463l322 1004h243l-489 -1379h-180l-205 580l-207 -580h-166z" />
<glyph unicode="X" horiz-adv-x="1171" d="M4 0l438 682l-411 670h295l258 -451l270 451h297l-414 -643l426 -709h-297l-282 477l-297 -477h-283z" />
<glyph unicode="Y" d="M4 1352h283l270 -529l285 529h282l-450 -772v-580h-258v580z" />
<glyph unicode="Z" horiz-adv-x="1218" d="M74 0v168l733 965h-721v219h1069v-168l-721 -965h721v-219h-1081z" />
<glyph unicode="[" horiz-adv-x="512" d="M90 -502v1854h412v-181h-168v-1493h168v-180h-412z" />
<glyph unicode="\" horiz-adv-x="837" d="M37 1352h246l526 -1854h-244z" />
<glyph unicode="]" horiz-adv-x="512" d="M12 -322h168v1493h-168v181h412v-1854h-412v180z" />
<glyph unicode="^" horiz-adv-x="1069" d="M49 387l426 967h115l426 -967h-168l-322 721l-323 -721h-154z" />
<glyph unicode="_" horiz-adv-x="1024" d="M0 0h1024v-168h-1024v168z" />
<glyph unicode="`" horiz-adv-x="1056" d="M133 1409h256l270 -344h-217z" />
<glyph unicode="a" horiz-adv-x="1056" d="M37 0l383 1006h217l383 -1006h-262l-76 221h-303l-80 -221h-262zM428 410h193l-91 321z" />
<glyph unicode="b" horiz-adv-x="1013" d="M160 0v1006h428q55 0 111.5 -14.5t101.5 -45.5t73.5 -80t28.5 -116q0 -76 -33.5 -136.5t-103.5 -89.5q164 -49 164 -248q0 -141 -92.5 -208.5t-266.5 -67.5h-411zM403 174h101q164 0 164 123q0 66 -47.5 95.5t-116.5 29.5h-101v-248zM403 602h113q25 0 47.5 4t40 16.5 t26.5 35t9 57.5q0 37 -10.5 59.5t-26.5 35.5t-36.5 17t-41.5 4h-121v-229z" />
<glyph unicode="c" horiz-adv-x="1056" d="M94 508q0 115 40 210t114 162.5t178 105.5t233 38q117 0 194 -27.5t146 -66.5l-110 -189q-47 35 -96.5 57.5t-122.5 22.5q-63 0 -119.5 -20.5t-99.5 -59.5t-69 -95t-26 -128q0 -76 27 -137.5t73 -105.5t108.5 -68.5t133.5 -24.5q88 0 138.5 21.5t89.5 38.5l88 -191 q-96 -41 -176 -56t-179 -15q-131 0 -235.5 37.5t-178 107.5t-112.5 167t-39 216z" />
<glyph unicode="d" horiz-adv-x="1247" d="M180 0v1006h395q285 0 429.5 -136.5t144.5 -363.5q0 -113 -37 -206t-108.5 -159.5t-180 -103.5t-250.5 -37h-393zM424 193h129q76 0 138.5 22.5t106.5 62t68.5 97t24.5 129.5q0 57 -17.5 113.5t-57.5 99.5t-104.5 69.5t-158.5 26.5h-129v-620z" />
<glyph unicode="e" horiz-adv-x="978" d="M184 0v1006h670v-187h-426v-213h350v-186h-350v-234h449v-186h-693z" />
<glyph unicode="f" horiz-adv-x="948" d="M184 0v1006h682v-187h-438v-223h360v-186h-360v-410h-244z" />
<glyph unicode="g" horiz-adv-x="1277" d="M135 504q0 123 44 220t123 162.5t187.5 100.5t235.5 35q57 0 107.5 -4t97.5 -15.5t95 -29t103 -43.5l-100 -187q-55 33 -128 58.5t-150 25.5q-76 0 -141.5 -19.5t-115 -59t-78 -98t-28.5 -136.5t31 -140.5t83 -106.5t119.5 -68.5t141.5 -24.5q27 0 51.5 4t58.5 15v276 h244v-430q-98 -23 -190 -41t-197 -18q-123 0 -231.5 32.5t-189.5 98t-127 164t-46 229.5z" />
<glyph unicode="h" horiz-adv-x="1406" d="M223 0v1006h244v-392h473v392h244v-1006h-244v420h-473v-420h-244z" />
<glyph unicode="i" horiz-adv-x="634" d="M195 0v1006h245v-1006h-245z" />
<glyph unicode="j" horiz-adv-x="595" d="M33 -242q6 8 21.5 26.5t32.5 41t33.5 46.5t26.5 42q12 25 18.5 44t9.5 37.5t4 39t1 49.5v922h244v-1039q-14 -35 -25.5 -58.5t-22.5 -44t-25.5 -40t-33.5 -43.5q-29 -37 -53 -63.5t-71 -71.5z" />
<glyph unicode="k" horiz-adv-x="1093" d="M221 0v1006h244v-402l270 402h254l-344 -490l361 -516h-248l-293 416v-416h-244z" />
<glyph unicode="l" horiz-adv-x="892" d="M180 0v1006h244v-818h414v-188h-658z" />
<glyph unicode="m" horiz-adv-x="1562" d="M233 0v1006h252l287 -670l299 670h250v-1006h-225v582l-281 -586h-104l-260 573v-569h-218z" />
<glyph unicode="n" horiz-adv-x="1368" d="M231 0v1006h263l417 -656v656h226v-1008h-242l-438 651v-649h-226z" />
<glyph unicode="o" horiz-adv-x="1325" d="M94 506q0 119 40 215t114 163.5t179 103.5t237 36q131 0 236.5 -37t179 -104.5t112.5 -164.5t39 -216q0 -117 -40 -213t-115 -165t-179 -106.5t-233 -37.5q-123 0 -226.5 34.5t-180.5 102t-120 165t-43 224.5zM354 502q0 -68 26 -127.5t67.5 -105.5t98 -72.5t118.5 -26.5 q61 0 116.5 26.5t97.5 72.5t67.5 105.5t25.5 127.5t-25.5 127t-67.5 105t-97.5 73t-116.5 27t-118 -27t-98.5 -73t-67.5 -105.5t-26 -126.5z" />
<glyph unicode="p" horiz-adv-x="1013" d="M195 0v1006h372q195 0 288 -75t93 -241q0 -186 -110.5 -274t-329.5 -88h-39q-16 0 -31 2v-330h-243zM438 516h70q92 0 141 42t49 118q0 66 -41 105.5t-108 39.5h-111v-305z" />
<glyph unicode="q" horiz-adv-x="1325" d="M94 500q0 121 40 218t114 164.5t179 104.5t237 37q131 0 236.5 -37t179 -104.5t112.5 -164.5t39 -218q0 -84 -22.5 -164t-68.5 -146.5t-120 -118t-174 -75.5q18 -25 38.5 -41t49.5 -39q35 -27 70.5 -47.5t101.5 -48.5l-168 -172q-47 27 -105.5 64.5t-111.5 84.5 q-49 43 -89 86t-75 97q-53 6 -111.5 23t-107.5 46q-115 66 -179.5 182.5t-64.5 268.5zM354 500q0 -68 26 -128.5t69 -106.5t98 -72.5t117 -26.5q61 0 116.5 26.5t97.5 72.5t67.5 106.5t25.5 128.5t-25.5 128t-67.5 106t-97.5 73t-116.5 27t-116.5 -27t-98.5 -73t-69 -106.5 t-26 -127.5z" />
<glyph unicode="r" horiz-adv-x="1050" d="M180 0v1006h426q66 0 124 -14.5t102.5 -49.5t70 -93t25.5 -144q0 -127 -54.5 -195t-144.5 -88l238 -422h-279l-213 401h-51v-401h-244zM424 575h121q72 0 102.5 39t30.5 86q0 49 -30 87t-103 38h-121v-250z" />
<glyph unicode="s" horiz-adv-x="950" d="M74 86l106 193q74 -41 143.5 -66t145.5 -25q47 0 86 16.5t39 59.5q0 31 -31 58.5t-72.5 52t-82.5 43t-60 28.5q-68 37 -113 69t-72.5 63.5t-39.5 68.5t-12 84q0 78 30.5 133.5t84 90t126 51t156.5 16.5q55 0 100 -5t87 -15.5t83 -25.5t88 -36l-104 -195 q-78 41 -133.5 55.5t-126.5 14.5q-47 0 -86 -16.5t-39 -53.5q0 -25 16.5 -45t44 -38.5t62.5 -37t73 -38.5q55 -29 105.5 -54.5t87.5 -59.5t59.5 -80t22.5 -118q0 -145 -101.5 -219.5t-279.5 -74.5q-127 0 -216 29.5t-177 76.5z" />
<glyph unicode="t" horiz-adv-x="917" d="M31 819v187h856v-187h-305v-819h-246v819h-305z" />
<glyph unicode="u" horiz-adv-x="1257" d="M180 395v611h244v-621q0 -94 57.5 -151.5t157.5 -57.5q51 0 89 18.5t62.5 47t37 66.5t12.5 77v621h237v-611q0 -135 -33.5 -213t-113.5 -129q-53 -37 -120 -55t-179 -18q-115 0 -184.5 18t-124.5 55q-39 25 -66 54.5t-44 68.5t-24.5 92.5t-7.5 126.5z" />
<glyph unicode="v" horiz-adv-x="1030" d="M33 1006h262l235 -664l213 664h254l-393 -1035h-178z" />
<glyph unicode="w" horiz-adv-x="1492" d="M47 1006h254l252 -699l100 256l-180 443h225l66 -201l57 201h191l-148 -428l105 -279l245 707h232l-381 -1026h-174l-139 356l-140 -356h-163z" />
<glyph unicode="x" horiz-adv-x="1017" d="M49 0l324 508l-305 498h260l182 -306l190 306h261l-306 -480l314 -526h-260l-201 326l-211 -326h-248z" />
<glyph unicode="y" horiz-adv-x="978" d="M43 1006h264l187 -355l196 355h246l-338 -586v-420h-244v420z" />
<glyph unicode="z" horiz-adv-x="1042" d="M90 0v152l543 667h-533v187h852v-152l-534 -666h534v-188h-862z" />
<glyph unicode="{" horiz-adv-x="837" d="M92 424v168h78q76 0 115 59.5t39 171.5v428q0 272 266 273h172v-160h-78q-156 0 -156 -205v-385q0 -121 -41 -188q-12 -18 -22 -30.5t-26.5 -21t-40 -13.5t-56.5 -9q37 -4 52.5 -8t27.5 -8q109 -45 108 -246v-379q0 -205 154 -205h78l-4 -190h-168q-266 0 -266 274v430 q0 113 -41 178.5t-113 65.5h-78z" />
<glyph unicode="|" horiz-adv-x="512" d="M141 -492v1983h228v-1983h-228z" />
<glyph unicode="}" horiz-adv-x="837" d="M92 -365h78q154 0 154 207v385q0 63 10 107.5t33 81.5q12 18 22 30.5t26.5 19.5t39.5 11q18 6 51 12q-35 4 -47 9q-14 4 -27 8q-109 43 -108 244v380q0 205 -154 205h-76v189h168q268 0 268 -273v-430q0 -115 41 -180.5t113 -65.5h78v-167h-78q-154 0 -154 -232v-426 q0 -274 -268 -274h-170v159z" />
<glyph unicode="~" horiz-adv-x="1114" d="M8 455q25 20 43.5 34.5t36.5 24.5t36.5 19.5t43.5 19.5q88 37 164 37t166 -41l102 -45q47 -20 79 -28.5t66 -8.5q66 0 129 22q35 12 62 27.5t74 48.5l92 -145q-51 -37 -81 -54.5t-73 -33.5q-96 -37 -186 -37q-33 0 -60.5 3t-57.5 12t-65.5 24.5t-84.5 38.5q-47 23 -79 31 t-67 8q-61 0 -127.5 -26t-128.5 -73z" />
<glyph unicode="&#xa1;" horiz-adv-x="540" d="M119 926q0 70 47 117t115 47t114.5 -47t46.5 -117q0 -68 -47 -115t-114 -47q-68 0 -115 47t-47 115zM152 -457l12 1108h233l13 -1108h-258z" />
<glyph unicode="&#xa2;" horiz-adv-x="950" d="M90 467q0 242 140.5 378t387.5 136l27 145h129l-29 -159q33 -8 55.5 -15.5t43 -15.5t41 -19.5t49.5 -29.5l-117 -187q-16 12 -27.5 21.5t-23.5 15.5t-26.5 12.5t-34.5 14.5l-111 -582h16q53 0 105.5 18.5t128.5 63.5l90 -198q-76 -41 -167 -67t-183 -26h-31l-33 -166 h-127l35 185q-166 47 -252 169t-86 306zM348 469q0 -172 123 -254l107 555q-104 -16 -167 -98t-63 -203z" />
<glyph unicode="&#xa3;" horiz-adv-x="1282" d="M-10 -309q61 18 91 29.5t56 25.5q43 25 76 57q16 18 29.5 37t25 42.5t21.5 55t22 74.5l49 181h-219l56 155l211 25l196 696q20 72 40 125t39 93t42 68.5t51 51.5q49 43 126 67.5t159 24.5q90 0 170 -35q47 -23 84 -60.5t86 -115.5l-184 -117q-25 43 -41.5 69t-34 39 t-37 18.5t-45.5 5.5q-39 0 -66.5 -13.5t-52.5 -52.5t-50.5 -110.5t-58.5 -186.5l-167 -567h335l-59 -180h-336l-57 -232q-23 -88 -82 -192q16 2 29.5 3t21.5 1t21.5 -1t31.5 -3q51 -6 74 -13l178 -45q16 -4 30.5 -5t27.5 -1q74 0 73 80q0 20 -6 49l-12 49l174 39 q20 -53 26.5 -82.5t6.5 -66.5q0 -137 -84 -208t-248 -71q-43 0 -83 5t-75 14l-141 32q-70 16 -148 17q-86 0 -151 -15q-53 -12 -107.5 -25.5t-113.5 -23.5v193z" />
<glyph unicode="&#xa4;" horiz-adv-x="819" d="M-57 168l184 184q-12 29 -20.5 59.5t-8.5 65.5q0 33 8.5 65.5t20.5 61.5l-184 184l161 162l187 -186q29 10 59.5 17t59.5 7q66 0 129 -26l186 188l162 -162l-191 -190q10 -27 17.5 -59.5t7.5 -61.5q0 -31 -7 -61.5t-18 -57.5l191 -190l-162 -162l-188 189 q-29 -12 -62 -20.5t-65 -8.5q-29 0 -62 7t-59 17l-185 -184zM303 477q0 -45 31 -75.5t76 -30.5q47 0 77.5 30.5t30.5 75.5q0 47 -30.5 78t-77.5 31q-45 0 -76 -31t-31 -78z" />
<glyph unicode="&#xa5;" d="M4 1352h283l270 -529l285 529h282l-387 -664l236 2v-131h-299v-141h299v-137h-299v-281h-258v281h-297v137h297v141h-297v131l239 -2z" />
<glyph unicode="&#xa6;" horiz-adv-x="512" d="M141 367h228v-859h-228v859zM141 633v858h228v-858h-228z" />
<glyph unicode="&#xa7;" horiz-adv-x="1062" d="M86 -375l147 105q43 -63 89.5 -88t121.5 -25q229 0 230 352q0 39 -4 97.5t-12.5 126t-19.5 142.5t-26 146q-25 135 -42 229.5t-27.5 161t-14.5 110.5t-4 79v24q0 16 2 37l131 29q0 -51 2.5 -79t12.5 -66q10 -47 23.5 -95.5t41.5 -132.5q70 -213 111 -356 q14 -53 26.5 -113.5t21.5 -121t14 -118t5 -102.5q0 -248 -110.5 -380t-317.5 -132q-76 0 -131 8.5t-104 28.5q-41 14 -76 44t-90 89zM147 977q0 248 110 380t318 132q76 0 131.5 -8t104.5 -29q39 -16 74 -45t90 -88l-146 -107q-43 66 -90 90.5t-123 24.5q-229 0 -229 -354 q0 -39 5 -96.5t13.5 -125t19.5 -142t26 -146.5q25 -135 42 -229.5t26 -161t13.5 -111.5t4.5 -82v-24q0 -16 -2 -39l-129 -23q-2 51 -4.5 78t-10.5 66q-10 45 -24.5 94t-40.5 133q-35 106 -62.5 195.5t-48.5 162.5q-14 51 -26.5 112.5t-21.5 122t-14.5 118t-5.5 102.5z" />
<glyph unicode="&#xa8;" horiz-adv-x="1056" d="M221 1192q0 57 39 95t96 38q55 0 94 -38t39 -95t-38.5 -95t-94.5 -38q-57 0 -96 38t-39 95zM582 1192q0 57 38.5 95t96.5 38q55 0 94 -38t39 -95t-39 -95t-94 -38q-57 0 -96 38t-39 95z" />
<glyph unicode="&#xa9;" horiz-adv-x="2066" d="M193 498q0 174 66.5 326.5t180 266t266 180t326.5 66.5t327.5 -66.5t267.5 -180t180.5 -266t66.5 -326.5t-66.5 -328t-180.5 -267.5t-267.5 -180t-327.5 -66.5t-326.5 66.5t-266 180t-180 267.5t-66.5 328zM385 498q0 -135 51 -253t138.5 -206t205 -139.5t252.5 -51.5 t253 51.5t206 139.5t139 206t51 253t-51 252.5t-139 205.5t-206 139.5t-253 51.5t-252.5 -51.5t-205 -139.5t-138.5 -205.5t-51 -252.5zM561 487q0 111 37 204t102.5 158.5t158.5 102.5t204 37q41 0 80 -5t74 -15q41 -12 76.5 -28.5t97.5 -57.5l-103 -162q-68 35 -113 49 t-102 14q-123 0 -194.5 -78.5t-71.5 -213.5q0 -141 70.5 -220t195.5 -79q31 0 53.5 2t46 10t52 22.5t71.5 36.5l101 -162q-76 -53 -165 -76.5t-171 -23.5q-113 0 -205 35t-157.5 98.5t-101.5 153.5t-36 198z" />
<glyph unicode="&#xaa;" horiz-adv-x="899" d="M154 653l284 705h180l285 -705h-229l-53 148h-183l-55 -148h-229zM485 965h80l-37 125z" />
<glyph unicode="&#xab;" horiz-adv-x="1146" d="M51 463l502 399v-244l-205 -155l205 -154v-246zM541 463l501 399v-244l-204 -155l204 -154v-246z" />
<glyph unicode="&#xac;" d="M51 391v168h1024v-502h-168v334h-856z" />
<glyph unicode="&#xad;" horiz-adv-x="565" d="M70 356v228h426v-228h-426z" />
<glyph unicode="&#xae;" horiz-adv-x="2004" d="M162 498q0 174 66.5 326.5t180 266t267 180t328.5 66.5q174 0 326.5 -66.5t266 -180t180 -266t66.5 -326.5t-66.5 -328t-180 -267.5t-266 -180t-326.5 -66.5t-328 66.5t-267.5 180t-180 267.5t-66.5 328zM354 498q0 -135 51.5 -253t139.5 -206t205.5 -139.5t253.5 -51.5 q135 0 252.5 51.5t204.5 139.5t138.5 206t51.5 253t-51.5 252.5t-138.5 205.5t-204.5 139.5t-252.5 51.5t-253 -51.5t-206 -139.5t-139.5 -205.5t-51.5 -252.5zM649 12v967h350q195 0 286 -71.5t91 -221.5q0 -123 -58 -198.5t-169 -92.5l227 -383h-256l-213 373h-39v-373 h-219zM868 528h107q78 0 122 37t44 103t-44 101.5t-122 35.5h-107v-277z" />
<glyph unicode="&#xaf;" horiz-adv-x="831" d="M76 1090v163h680v-163h-680z" />
<glyph unicode="&#xb0;" horiz-adv-x="681" d="M88 1112q0 53 20.5 100.5t55.5 82t82 55t100 20.5q49 0 93 -19.5t76 -51t51.5 -76t19.5 -93.5q0 -53 -20.5 -100t-55.5 -82t-82 -55.5t-100 -20.5q-49 0 -93.5 18.5t-77 51.5t-51 77t-18.5 93zM209 1120q0 -53 37 -91t90 -38t91 38t38 91t-38 91t-91 38t-90 -37.5 t-37 -91.5z" />
<glyph unicode="&#xb1;" d="M78 0v168h971v-168h-971zM78 532v168h401v320h168v-320h402v-168h-402v-319h-168v319h-401z" />
<glyph unicode="&#xb2;" horiz-adv-x="692" d="M61 1229q35 25 62 42t49.5 29.5t43 20.5t44.5 14q31 10 64.5 15.5t62.5 5.5q111 0 175.5 -58.5t64.5 -162.5q0 -66 -24.5 -125.5t-63.5 -112.5t-84 -103.5t-84 -95.5h280v-159h-547v118q33 39 74 84t82 93.5t79 97.5t64 96q10 20 17.5 46t7.5 42q0 37 -18.5 56.5 t-49.5 19.5q-57 0 -113.5 -36t-96.5 -69z" />
<glyph unicode="&#xb3;" horiz-adv-x="681" d="M72 584l71 145q31 -16 51.5 -26.5t36 -16.5t27.5 -8t27 -2q49 0 83.5 33.5t34.5 81.5q0 25 -12 49q-10 25 -24.5 33t-61.5 8h-110v135q57 8 78.5 14t43.5 21q47 31 48 88q0 61 -60 61q-23 0 -41 -7t-37 -17q-10 -4 -25.5 -13.5t-49.5 -27.5l-80 125q61 43 124.5 71.5 t143.5 28.5q102 0 161.5 -48t59.5 -138q0 -47 -24.5 -96.5t-65.5 -76.5q59 -20 94 -72t35 -126q0 -123 -85 -199t-220 -76q-29 0 -52.5 2t-48 8.5t-54 17.5t-68.5 28z" />
<glyph unicode="&#xb4;" horiz-adv-x="1056" d="M403 1065l271 344h266l-315 -344h-222z" />
<glyph unicode="&#xb5;" horiz-adv-x="1116" d="M125 -457q0 92 2 203t3 226.5t2 226t2 204t2 159t1 89.5v301h246v-612q0 -88 17.5 -125t60.5 -37q41 0 96 40t135 126l33 35v573h246v-952h-246v160q-86 -96 -162 -136t-168 -40h-16l4 -441h-258z" />
<glyph unicode="&#xb6;" horiz-adv-x="1318" d="M106 985q0 123 36 211t118 164q80 74 166 103.5t217 29.5h555v-1982h-207v1841h-153v-1841h-207v978h-90q-70 0 -146 36t-141 100q-78 76 -113 159.5t-35 200.5z" />
<glyph unicode="&#xb7;" horiz-adv-x="512" d="M94 481q0 68 47 115t115 47t115 -47t47 -115q0 -70 -47 -117t-115 -47t-115 47.5t-47 116.5z" />
<glyph unicode="&#xb8;" horiz-adv-x="909" d="M281 -451l45 117q90 -41 147 -41q35 0 56.5 21.5t21.5 54.5q0 43 -24.5 61.5t-84.5 18.5h-86l148 233h108v-14l-80 -141q82 0 127.5 -41t45.5 -113q0 -43 -16.5 -80t-46.5 -64.5t-67.5 -44t-80.5 -16.5q-45 0 -96.5 11.5t-116.5 37.5z" />
<glyph unicode="&#xb9;" horiz-adv-x="602" d="M82 1192v160h377v-813h-191v653h-186z" />
<glyph unicode="&#xba;" d="M244 1026q0 170 113.5 268.5t306.5 98.5q94 0 171.5 -26t132 -73t84 -114.5t29.5 -151.5t-29.5 -151.5t-85 -114.5t-132 -73.5t-170.5 -26.5t-172 26.5t-133.5 73.5t-85 114.5t-29.5 149.5zM467 1028q0 -41 16.5 -78t44 -64.5t62.5 -43t74 -15.5q37 0 72.5 15.5t62 43 t43 64.5t16.5 78t-16.5 77t-43 63.5t-62 43t-72.5 15.5q-39 0 -74 -15.5t-62.5 -43t-44 -63.5t-16.5 -77z" />
<glyph unicode="&#xbb;" horiz-adv-x="1146" d="M102 63v246l207 154l-207 155v244l502 -399zM592 63v246l207 154l-207 155v244l502 -399z" />
<glyph unicode="&#xbc;" horiz-adv-x="1564" d="M82 1192v160h377v-813h-191v653h-186zM373 -94l641 1501h164l-641 -1501h-164zM930 186v103l387 524h113v-483h114v-144h-114v-186h-175v186h-325zM1135 330h120v168z" />
<glyph unicode="&#xbd;" horiz-adv-x="1662" d="M82 1192v160h377v-813h-191v653h-186zM373 -94l641 1501h164l-641 -1501h-164zM1032 690q35 25 61.5 42.5t49 29.5t43 20.5t45.5 14.5q31 10 64.5 15t62.5 5q111 0 175 -58.5t64 -162.5q0 -66 -24.5 -125t-63.5 -112.5t-84 -103.5t-84 -95h281v-160h-547v119q33 39 74 84 t82 93t79 97t64 96q10 20 17.5 46t7.5 43q0 37 -18.5 56t-49.5 19q-57 0 -113.5 -35.5t-97.5 -68.5z" />
<glyph unicode="&#xbe;" horiz-adv-x="1644" d="M72 584l71 145q31 -16 51.5 -26.5t36 -16.5t27.5 -8t27 -2q49 0 83.5 33.5t34.5 81.5q0 25 -12 49q-10 25 -24.5 33t-61.5 8h-110v135q57 8 78.5 14t43.5 21q47 31 48 88q0 61 -60 61q-23 0 -41 -7t-37 -17q-10 -4 -25.5 -13.5t-49.5 -27.5l-80 125q61 43 124.5 71.5 t143.5 28.5q102 0 161.5 -48t59.5 -138q0 -47 -24.5 -96.5t-65.5 -76.5q59 -20 94 -72t35 -126q0 -123 -85 -199t-220 -76q-29 0 -52.5 2t-48 8.5t-54 17.5t-68.5 28zM453 -94l641 1501h163l-641 -1501h-163zM1010 186v103l387 524h112v-483h115v-144h-115v-186h-174v186 h-325zM1214 330h121v168z" />
<glyph unicode="&#xbf;" horiz-adv-x="856" d="M117 133q0 78 26.5 141.5t77.5 106.5q37 31 82 43t119 12h51v195h246v-395h-336q-8 -41 -11 -68t-3 -55q0 -152 107.5 -243t305.5 -112l-51 -231q-61 6 -105 14t-81 18.5t-69 25t-66 34.5q-135 82 -214 219t-79 295zM440 924q0 68 47.5 115.5t114.5 47.5q68 0 115 -47.5 t47 -115.5t-47 -116t-115 -48t-115 48t-47 116z" />
<glyph unicode="&#xc0;" horiz-adv-x="1218" d="M4 0l490 1352h231l489 -1352h-270l-106 334h-453l-111 -334h-270zM230 1671h260l254 -223h-221zM455 553h313l-158 489z" />
<glyph unicode="&#xc1;" horiz-adv-x="1218" d="M4 0l490 1352h231l489 -1352h-270l-106 334h-453l-111 -334h-270zM455 553h313l-158 489zM483 1448l250 223h258l-287 -223h-221z" />
<glyph unicode="&#xc2;" horiz-adv-x="1218" d="M4 0l490 1352h231l489 -1352h-270l-106 334h-453l-111 -334h-270zM240 1448l250 244h244l247 -244h-202l-166 137l-168 -137h-205zM455 553h313l-158 489z" />
<glyph unicode="&#xc3;" horiz-adv-x="1218" d="M4 0l490 1352h231l489 -1352h-270l-106 334h-453l-111 -334h-270zM209 1608q47 33 71.5 47t51.5 26q29 14 60.5 22.5t60.5 8.5q20 0 37.5 -2t36 -10t43 -21.5t63.5 -36.5q31 -18 53.5 -25t48.5 -7q18 0 34.5 3t34 10t39 21.5t54.5 38.5l82 -122q-35 -35 -59.5 -52.5 t-63.5 -33.5q-76 -33 -135 -33q-74 0 -174 55q-45 27 -63.5 33t-43.5 6q-33 0 -56.5 -8t-61.5 -31l-31 -18zM455 553h313l-158 489z" />
<glyph unicode="&#xc4;" horiz-adv-x="1218" d="M4 0l490 1352h231l489 -1352h-270l-106 334h-453l-111 -334h-270zM305 1575q0 57 39 95t96 38q55 0 94 -38t39 -95t-39 -95t-94 -38q-57 0 -96 38t-39 95zM455 553h313l-158 489zM660 1575q0 57 39 95t96 38q55 0 94 -38t39 -95t-39 -95t-94 -38q-57 0 -96 38t-39 95z " />
<glyph unicode="&#xc5;" horiz-adv-x="1218" d="M4 0l490 1352h231l489 -1352h-270l-106 334h-453l-111 -334h-270zM426 1626q0 37 14.5 71t40 58.5t59.5 39.5t71 15t70.5 -15t59 -39.5t40 -58.5t14.5 -71q0 -76 -54.5 -130t-129.5 -54q-76 0 -130.5 54t-54.5 130zM455 553h313l-158 489zM533 1626q0 -35 22.5 -56.5 t55.5 -21.5t55.5 21.5t22.5 56.5q0 33 -23 55.5t-55 22.5q-33 0 -55.5 -22.5t-22.5 -55.5z" />
<glyph unicode="&#xc6;" horiz-adv-x="1626" d="M-33 0l645 1352h920v-219h-547v-334h442v-219h-442v-361h571v-219h-817v322h-356l-145 -322h-271zM477 541h262v583z" />
<glyph unicode="&#xc7;" horiz-adv-x="1239" d="M51 682q0 147 53.5 277.5t153.5 228.5q102 100 222 144t288 44q129 0 232.5 -31.5t191.5 -97.5l-98 -205q-131 94 -312 95q-98 0 -180 -33t-141.5 -91.5t-92 -139t-32.5 -177.5q0 -109 35 -197.5t98 -152t153.5 -97.5t200.5 -34q72 0 139.5 14.5t157.5 49.5l47 -218 q-33 -14 -56.5 -24t-43.5 -17.5t-39.5 -12.5t-42.5 -11q-47 -10 -97 -15.5t-108 -7.5l-59 -106q82 0 127 -41t45 -113q0 -43 -16.5 -79.5t-46 -64.5t-67.5 -44.5t-81 -16.5q-45 0 -96 11.5t-117 38.5l45 116q90 -41 148 -41q35 0 56 21.5t21 54.5q0 43 -24.5 61.5 t-83.5 18.5h-86l119 191q-121 10 -214.5 50t-170.5 111q-109 98 -168.5 239.5t-59.5 301.5z" />
<glyph unicode="&#xc8;" horiz-adv-x="1103" d="M184 0v1352h824v-219h-566v-334h463v-219h-463v-361h592v-219h-850zM248 1671h260l254 -223h-221z" />
<glyph unicode="&#xc9;" horiz-adv-x="1103" d="M184 0v1352h824v-219h-566v-334h463v-219h-463v-361h592v-219h-850zM477 1448l250 223h258l-287 -223h-221z" />
<glyph unicode="&#xca;" horiz-adv-x="1103" d="M184 0v1352h824v-219h-566v-334h463v-219h-463v-361h592v-219h-850zM233 1448l250 244h244l247 -244h-202l-166 137l-168 -137h-205z" />
<glyph unicode="&#xcb;" horiz-adv-x="1103" d="M184 0v1352h824v-219h-566v-334h463v-219h-463v-361h592v-219h-850zM295 1575q0 57 39 95t96 38q55 0 94 -38t39 -95t-39 -95t-94 -38q-57 0 -96 38t-39 95zM670 1575q0 57 39 95t96 38q55 0 94 -38t39 -95t-39 -95t-94 -38q-57 0 -96 38t-39 95z" />
<glyph unicode="&#xcc;" horiz-adv-x="614" d="M-65 1671h260l254 -223h-221zM178 0v1352h258v-1352h-258z" />
<glyph unicode="&#xcd;" horiz-adv-x="614" d="M162 1448l250 223h258l-287 -223h-221zM178 0v1352h258v-1352h-258z" />
<glyph unicode="&#xce;" horiz-adv-x="614" d="M-68 1448l250 244h244l247 -244h-202l-166 137l-168 -137h-205zM178 0v1352h258v-1352h-258z" />
<glyph unicode="&#xcf;" horiz-adv-x="614" d="M10 1575q0 57 39 95t96 38q55 0 94 -38t39 -95t-39 -95t-94 -38q-57 0 -96 38t-39 95zM178 0v1352h258v-1352h-258zM346 1575q0 57 39 95t96 38q55 0 94 -38t39 -95t-39 -95t-94 -38q-57 0 -96 38t-39 95z" />
<glyph unicode="&#xd0;" horiz-adv-x="1456" d="M-51 616v177h223v559h502q193 0 320.5 -46t228.5 -153q88 -94 135 -217t47 -256q0 -135 -48 -260t-138 -221q-186 -199 -547 -199h-500v616h-223zM442 227h205q231 0 355 117t124 334q0 117 -42 215t-113 151q-53 41 -133 60.5t-191 19.5h-205v-331h301v-177h-301v-389z " />
<glyph unicode="&#xd1;" horiz-adv-x="1554" d="M197 0v1352h297l546 -856q29 -47 44.5 -81t27.5 -67v1004h244v-1364h-271l-579 874l-45 82q-6 12 -10.5 21.5t-8.5 25.5v-991h-245zM381 1608q47 33 71.5 47t51.5 26q29 14 60.5 22.5t60.5 8.5q20 0 37.5 -2t36 -10t43 -21.5t63.5 -36.5q31 -18 53.5 -25t48.5 -7 q18 0 34.5 3t34 10t39 21.5t54.5 38.5l82 -122q-35 -35 -59.5 -52.5t-63.5 -33.5q-76 -33 -135 -33q-74 0 -174 55q-45 27 -63.5 33t-43.5 6q-33 0 -56.5 -8t-61.5 -31l-31 -18z" />
<glyph unicode="&#xd2;" horiz-adv-x="1562" d="M63 676q0 156 52.5 285t146.5 221t227.5 143t292.5 51q160 0 292 -51t226.5 -143t146.5 -221t52 -285q0 -154 -53 -283t-148.5 -222t-226.5 -145.5t-289 -52.5t-290 52.5t-227 145.5t-148.5 222t-53.5 283zM338 676q0 -102 34 -190.5t93 -152t140 -99t177 -35.5 q94 0 176 35.5t140.5 99t92.5 152t34 190.5t-34 189t-92.5 151.5t-140 100.5t-176.5 36q-96 0 -177 -36t-140 -100.5t-93 -151.5t-34 -189zM402 1671h260l254 -223h-221z" />
<glyph unicode="&#xd3;" horiz-adv-x="1562" d="M63 676q0 156 52.5 285t146.5 221t227.5 143t292.5 51q160 0 292 -51t226.5 -143t146.5 -221t52 -285q0 -154 -53 -283t-148.5 -222t-226.5 -145.5t-289 -52.5t-290 52.5t-227 145.5t-148.5 222t-53.5 283zM338 676q0 -102 34 -190.5t93 -152t140 -99t177 -35.5 q94 0 176 35.5t140.5 99t92.5 152t34 190.5t-34 189t-92.5 151.5t-140 100.5t-176.5 36q-96 0 -177 -36t-140 -100.5t-93 -151.5t-34 -189zM629 1448l250 223h258l-287 -223h-221z" />
<glyph unicode="&#xd4;" horiz-adv-x="1562" d="M63 676q0 156 52.5 285t146.5 221t227.5 143t292.5 51q160 0 292 -51t226.5 -143t146.5 -221t52 -285q0 -154 -53 -283t-148.5 -222t-226.5 -145.5t-289 -52.5t-290 52.5t-227 145.5t-148.5 222t-53.5 283zM338 676q0 -102 34 -190.5t93 -152t140 -99t177 -35.5 q94 0 176 35.5t140.5 99t92.5 152t34 190.5t-34 189t-92.5 151.5t-140 100.5t-176.5 36q-96 0 -177 -36t-140 -100.5t-93 -151.5t-34 -189zM414 1448l250 244h244l247 -244h-202l-166 137l-168 -137h-205z" />
<glyph unicode="&#xd5;" horiz-adv-x="1562" d="M63 676q0 156 52.5 285t146.5 221t227.5 143t292.5 51q160 0 292 -51t226.5 -143t146.5 -221t52 -285q0 -154 -53 -283t-148.5 -222t-226.5 -145.5t-289 -52.5t-290 52.5t-227 145.5t-148.5 222t-53.5 283zM338 676q0 -102 34 -190.5t93 -152t140 -99t177 -35.5 q94 0 176 35.5t140.5 99t92.5 152t34 190.5t-34 189t-92.5 151.5t-140 100.5t-176.5 36q-96 0 -177 -36t-140 -100.5t-93 -151.5t-34 -189zM410 1608q47 33 71.5 47t51.5 26q29 14 60.5 22.5t60.5 8.5q20 0 37.5 -2t36 -10t43 -21.5t63.5 -36.5q31 -18 53.5 -25t48.5 -7 q18 0 34.5 3t34 10t39 21.5t54.5 38.5l82 -122q-35 -35 -59.5 -52.5t-63.5 -33.5q-76 -33 -135 -33q-74 0 -174 55q-45 27 -63.5 33t-43.5 6q-33 0 -56.5 -8t-61.5 -31l-31 -18z" />
<glyph unicode="&#xd6;" horiz-adv-x="1562" d="M63 676q0 156 52.5 285t146.5 221t227.5 143t292.5 51q160 0 292 -51t226.5 -143t146.5 -221t52 -285q0 -154 -53 -283t-148.5 -222t-226.5 -145.5t-289 -52.5t-290 52.5t-227 145.5t-148.5 222t-53.5 283zM338 676q0 -102 34 -190.5t93 -152t140 -99t177 -35.5 q94 0 176 35.5t140.5 99t92.5 152t34 190.5t-34 189t-92.5 151.5t-140 100.5t-176.5 36q-96 0 -177 -36t-140 -100.5t-93 -151.5t-34 -189zM387 1575q0 57 39 95t96 38q55 0 94 -38t39 -95t-39 -95t-94 -38q-57 0 -96 38t-39 95zM912 1575q0 57 39 95t96 38q55 0 94 -38 t39 -95t-39 -95t-94 -38q-57 0 -96 38t-39 95z" />
<glyph unicode="&#xd7;" d="M63 82l381 381l-381 381l119 119l381 -381l381 381l119 -119l-381 -381l381 -381l-119 -119l-381 381l-381 -381z" />
<glyph unicode="&#xd8;" horiz-adv-x="1562" d="M57 84l154 141q-80 115 -114 218.5t-34 230.5q0 156 52.5 286t146.5 222t225 143t291 51q147 0 261 -35.5t206 -109.5l135 133l119 -107l-145 -139q145 -188 145 -442q0 -154 -53 -283t-148.5 -222t-226.5 -145.5t-289 -52.5q-252 0 -465 150l-143 -148zM338 680 q0 -82 15.5 -144.5t49.5 -117.5l656 633q-70 59 -135.5 85.5t-145.5 26.5q-94 0 -175 -36.5t-139 -101t-92 -153t-34 -192.5zM506 297q127 -109 280 -109q92 0 173 37t139.5 102.5t92.5 154t34 192.5q0 80 -14.5 137t-49.5 121z" />
<glyph unicode="&#xd9;" horiz-adv-x="1433" d="M150 528v824h256v-838q0 -301 319 -301q147 0 224 77t77 224v838h258v-824q0 -92 -9 -161.5t-30.5 -123t-57.5 -94t-89 -77.5q-74 -51 -164 -75t-217 -24q-129 0 -217 22.5t-166 76.5q-53 37 -88 77.5t-56.5 94t-30.5 123t-9 161.5zM348 1671h260l254 -223h-221z" />
<glyph unicode="&#xda;" horiz-adv-x="1433" d="M150 528v824h256v-838q0 -301 319 -301q147 0 224 77t77 224v838h258v-824q0 -92 -9 -161.5t-30.5 -123t-57.5 -94t-89 -77.5q-74 -51 -164 -75t-217 -24q-129 0 -217 22.5t-166 76.5q-53 37 -88 77.5t-56.5 94t-30.5 123t-9 161.5zM569 1448l250 223h258l-287 -223h-221 z" />
<glyph unicode="&#xdb;" horiz-adv-x="1433" d="M150 528v824h256v-838q0 -301 319 -301q147 0 224 77t77 224v838h258v-824q0 -92 -9 -161.5t-30.5 -123t-57.5 -94t-89 -77.5q-74 -51 -164 -75t-217 -24q-129 0 -217 22.5t-166 76.5q-53 37 -88 77.5t-56.5 94t-30.5 123t-9 161.5zM348 1448l250 244h244l247 -244h-202 l-166 137l-168 -137h-205z" />
<glyph unicode="&#xdc;" horiz-adv-x="1433" d="M150 528v824h256v-838q0 -301 319 -301q147 0 224 77t77 224v838h258v-824q0 -92 -9 -161.5t-30.5 -123t-57.5 -94t-89 -77.5q-74 -51 -164 -75t-217 -24q-129 0 -217 22.5t-166 76.5q-53 37 -88 77.5t-56.5 94t-30.5 123t-9 161.5zM361 1575q0 57 39 95t96 38 q55 0 94 -38t39 -95t-39 -95t-94 -38q-57 0 -96 38t-39 95zM778 1575q0 57 39 95t96 38q55 0 94 -38t39 -95t-39 -95t-94 -38q-57 0 -96 38t-39 95z" />
<glyph unicode="&#xdd;" d="M4 1352h283l270 -529l285 529h282l-450 -772v-580h-258v580zM420 1448l250 223h258l-287 -223h-221z" />
<glyph unicode="&#xde;" horiz-adv-x="1138" d="M184 0v1352h258v-209h205q133 0 214 -25.5t145 -85.5q114 -115 114 -303q0 -113 -39 -206t-114 -158q-72 -61 -166 -89t-234 -28q-39 0 -64.5 1t-60.5 5v-254h-258zM442 473q31 -2 62 -3t61 -1q152 0 220.5 57.5t68.5 182.5q0 111 -55.5 163t-175.5 52h-181v-451z" />
<glyph unicode="&#xdf;" horiz-adv-x="1900" d="M74 86l106 193q74 -41 143.5 -66t145.5 -25q47 0 86 16.5t39 59.5q0 31 -31 58.5t-72.5 52t-82.5 43t-60 28.5q-68 37 -113 69t-72.5 63.5t-39.5 68.5t-12 84q0 78 30.5 133.5t84 90t126 51t156.5 16.5q55 0 100 -5t87 -15.5t83 -25.5t88 -36l-104 -195 q-78 41 -133.5 55.5t-126.5 14.5q-47 0 -86 -16.5t-39 -53.5q0 -25 16.5 -45t44 -38.5t62.5 -37t73 -38.5q55 -29 105.5 -54.5t87.5 -59.5t59.5 -80t22.5 -118q0 -145 -101.5 -219.5t-279.5 -74.5q-127 0 -216 29.5t-177 76.5zM1024 86l106 193q74 -41 143.5 -66t145.5 -25 q47 0 86 16.5t39 59.5q0 31 -31 58.5t-72.5 52t-82.5 43t-60 28.5q-68 37 -113 69t-72.5 63.5t-39.5 68.5t-12 84q0 78 30.5 133.5t84 90t126 51t156.5 16.5q55 0 100 -5t87 -15.5t83 -25.5t88 -36l-104 -195q-78 41 -133.5 55.5t-126.5 14.5q-47 0 -86 -16.5t-39 -53.5 q0 -25 16.5 -45t44 -38.5t62.5 -37t73 -38.5q55 -29 105.5 -54.5t87.5 -59.5t59.5 -80t22.5 -118q0 -145 -101.5 -219.5t-279.5 -74.5q-127 0 -216 29.5t-177 76.5z" />
<glyph unicode="&#xe0;" horiz-adv-x="1056" d="M37 0l383 1006h217l383 -1006h-262l-76 221h-303l-80 -221h-262zM149 1452h256l270 -344h-217zM428 410h193l-91 321z" />
<glyph unicode="&#xe1;" horiz-adv-x="1056" d="M37 0l383 1006h217l383 -1006h-262l-76 221h-303l-80 -221h-262zM387 1108l270 344h267l-316 -344h-221zM428 410h193l-91 321z" />
<glyph unicode="&#xe2;" horiz-adv-x="1056" d="M37 0l383 1006h217l383 -1006h-262l-76 221h-303l-80 -221h-262zM184 1108l252 344h193l245 -344h-208l-136 180l-135 -180h-211zM428 410h193l-91 321z" />
<glyph unicode="&#xe3;" horiz-adv-x="1056" d="M37 0l383 1006h217l383 -1006h-262l-76 221h-303l-80 -221h-262zM137 1268q47 33 71.5 47t51.5 26q29 14 60.5 22.5t60.5 8.5q20 0 37.5 -2t36 -10t43 -21.5t63.5 -35.5q31 -18 53.5 -25.5t48.5 -7.5q18 0 35 3t34 10t38.5 21.5t54.5 38.5l82 -122q-35 -35 -59.5 -52.5 t-63.5 -33.5q-76 -33 -135 -33q-74 0 -174 55q-45 27 -63.5 33t-42.5 6q-33 0 -56.5 -8t-62.5 -31l-31 -18zM428 410h193l-91 321z" />
<glyph unicode="&#xe4;" horiz-adv-x="1056" d="M37 0l383 1006h217l383 -1006h-262l-76 221h-303l-80 -221h-262zM215 1235q0 57 39 95t97 38q55 0 94 -38t39 -95t-39 -95t-94 -38q-57 0 -96.5 38t-39.5 95zM428 410h193l-91 321zM569 1235q0 57 39 95t97 38q55 0 94 -38t39 -95t-39 -95t-94 -38q-57 0 -96.5 38 t-39.5 95z" />
<glyph unicode="&#xe5;" horiz-adv-x="1056" d="M37 0l383 1006h217l383 -1006h-262l-76 221h-303l-80 -221h-262zM346 1286q0 37 14.5 71t40 58.5t59.5 39.5t71 15t70.5 -15t59 -39.5t40 -58.5t14.5 -71q0 -76 -54 -130t-130 -54t-130.5 54t-54.5 130zM428 410h193l-91 321zM453 1286q0 -35 22.5 -56.5t55.5 -21.5 t55.5 21.5t22.5 56.5q0 33 -22.5 55.5t-55.5 22.5t-55.5 -22.5t-22.5 -55.5z" />
<glyph unicode="&#xe6;" horiz-adv-x="1409" d="M45 0l487 1006h752v-187h-426v-211h346v-192h-346v-228h445v-188h-678v221h-226l-106 -221h-248zM479 410h146v319z" />
<glyph unicode="&#xe7;" horiz-adv-x="1056" d="M94 508q0 115 40 210t114 162.5t178 105.5t233 38q117 0 194 -27.5t146 -66.5l-110 -189q-47 35 -96.5 57.5t-122.5 22.5q-63 0 -119.5 -20.5t-99.5 -59.5t-69 -95t-26 -128q0 -76 27 -137.5t73 -105.5t108.5 -68.5t133.5 -24.5q88 0 138.5 21.5t89.5 38.5l88 -191 q-86 -37 -157 -52t-155 -17l-63 -115q82 0 127 -41t45 -113q0 -43 -16.5 -79.5t-46 -64.5t-67.5 -44.5t-81 -16.5q-45 0 -96 11.5t-117 38.5l45 116q90 -41 148 -41q35 0 56 21.5t21 54.5q0 43 -24.5 61.5t-83.5 18.5h-86l121 195q-115 10 -205 52t-153.5 110.5t-97.5 159.5 t-34 202z" />
<glyph unicode="&#xe8;" horiz-adv-x="978" d="M172 1452h256l270 -344h-217zM184 0v1006h670v-187h-426v-213h350v-186h-350v-234h449v-186h-693z" />
<glyph unicode="&#xe9;" horiz-adv-x="978" d="M184 0v1006h670v-187h-426v-213h350v-186h-350v-234h449v-186h-693zM365 1108l270 344h267l-316 -344h-221z" />
<glyph unicode="&#xea;" horiz-adv-x="978" d="M178 1108l252 344h193l245 -344h-208l-136 180l-135 -180h-211zM184 0v1006h670v-187h-426v-213h350v-186h-350v-234h449v-186h-693z" />
<glyph unicode="&#xeb;" horiz-adv-x="978" d="M184 0v1006h670v-187h-426v-213h350v-186h-350v-234h449v-186h-693zM229 1235q0 57 39 95t97 38q55 0 94 -38t39 -95t-39 -95t-94 -38q-57 0 -96.5 38t-39.5 95zM567 1235q0 57 39 95t97 38q55 0 94 -38t39 -95t-39 -95t-94 -38q-57 0 -96.5 38t-39.5 95z" />
<glyph unicode="&#xec;" horiz-adv-x="634" d="M-61 1452h256l270 -344h-217zM195 0v1006h245v-1006h-245z" />
<glyph unicode="&#xed;" horiz-adv-x="634" d="M178 1108l270 344h267l-316 -344h-221zM195 0v1006h245v-1006h-245z" />
<glyph unicode="&#xee;" horiz-adv-x="634" d="M-29 1108l252 344h193l245 -344h-208l-136 180l-135 -180h-211zM195 0v1006h245v-1006h-245z" />
<glyph unicode="&#xef;" horiz-adv-x="634" d="M22 1235q0 57 39 95t97 38q55 0 94 -38t39 -95t-39 -95t-94 -38q-57 0 -96.5 38t-39.5 95zM195 0v1006h245v-1006h-245zM348 1235q0 57 39 95t97 38q55 0 94 -38t39 -95t-39 -95t-94 -38q-57 0 -96.5 38t-39.5 95z" />
<glyph unicode="&#xf0;" horiz-adv-x="1247" d="M-43 440v176h223v390h395q285 0 429.5 -136.5t144.5 -363.5q0 -113 -37 -206t-108.5 -159.5t-180 -103.5t-250.5 -37h-393v440h-223zM424 193h129q76 0 138.5 22.5t106.5 62t68.5 97t24.5 129.5q0 57 -17.5 113.5t-57.5 99.5t-104.5 69.5t-158.5 26.5h-129v-197h205v-176 h-205v-247z" />
<glyph unicode="&#xf1;" horiz-adv-x="1368" d="M231 0v1006h263l417 -656v656h226v-1008h-242l-438 651v-649h-226zM293 1268q47 33 71.5 47t51.5 26q29 14 60.5 22.5t60.5 8.5q20 0 37.5 -2t36 -10t43 -21.5t63.5 -35.5q31 -18 53.5 -25.5t48.5 -7.5q18 0 35 3t34 10t38.5 21.5t54.5 38.5l82 -122q-35 -35 -59.5 -52.5 t-63.5 -33.5q-76 -33 -135 -33q-74 0 -174 55q-45 27 -63.5 33t-42.5 6q-33 0 -56.5 -8t-62.5 -31l-31 -18z" />
<glyph unicode="&#xf2;" horiz-adv-x="1325" d="M94 506q0 119 40 215t114 163.5t179 103.5t237 36q131 0 236.5 -37t179 -104.5t112.5 -164.5t39 -216q0 -117 -40 -213t-115 -165t-179 -106.5t-233 -37.5q-123 0 -226.5 34.5t-180.5 102t-120 165t-43 224.5zM299 1452h256l270 -344h-217zM354 502q0 -68 26 -127.5 t67.5 -105.5t98 -72.5t118.5 -26.5q61 0 116.5 26.5t97.5 72.5t67.5 105.5t25.5 127.5t-25.5 127t-67.5 105t-97.5 73t-116.5 27t-118 -27t-98.5 -73t-67.5 -105.5t-26 -126.5z" />
<glyph unicode="&#xf3;" horiz-adv-x="1325" d="M94 506q0 119 40 215t114 163.5t179 103.5t237 36q131 0 236.5 -37t179 -104.5t112.5 -164.5t39 -216q0 -117 -40 -213t-115 -165t-179 -106.5t-233 -37.5q-123 0 -226.5 34.5t-180.5 102t-120 165t-43 224.5zM354 502q0 -68 26 -127.5t67.5 -105.5t98 -72.5t118.5 -26.5 q61 0 116.5 26.5t97.5 72.5t67.5 105.5t25.5 127.5t-25.5 127t-67.5 105t-97.5 73t-116.5 27t-118 -27t-98.5 -73t-67.5 -105.5t-26 -126.5zM502 1108l270 344h267l-316 -344h-221z" />
<glyph unicode="&#xf4;" horiz-adv-x="1325" d="M94 506q0 119 40 215t114 163.5t179 103.5t237 36q131 0 236.5 -37t179 -104.5t112.5 -164.5t39 -216q0 -117 -40 -213t-115 -165t-179 -106.5t-233 -37.5q-123 0 -226.5 34.5t-180.5 102t-120 165t-43 224.5zM315 1108l252 344h193l245 -344h-208l-136 180l-135 -180 h-211zM354 502q0 -68 26 -127.5t67.5 -105.5t98 -72.5t118.5 -26.5q61 0 116.5 26.5t97.5 72.5t67.5 105.5t25.5 127.5t-25.5 127t-67.5 105t-97.5 73t-116.5 27t-118 -27t-98.5 -73t-67.5 -105.5t-26 -126.5z" />
<glyph unicode="&#xf5;" horiz-adv-x="1325" d="M94 506q0 119 40 215t114 163.5t179 103.5t237 36q131 0 236.5 -37t179 -104.5t112.5 -164.5t39 -216q0 -117 -40 -213t-115 -165t-179 -106.5t-233 -37.5q-123 0 -226.5 34.5t-180.5 102t-120 165t-43 224.5zM278 1268q47 33 71.5 47t51.5 26q29 14 60.5 22.5t60.5 8.5 q20 0 37.5 -2t36 -10t43 -21.5t63.5 -35.5q31 -18 53.5 -25.5t48.5 -7.5q18 0 35 3t34 10t38.5 21.5t54.5 38.5l82 -122q-35 -35 -59.5 -52.5t-63.5 -33.5q-76 -33 -135 -33q-74 0 -174 55q-45 27 -63.5 33t-42.5 6q-33 0 -56.5 -8t-62.5 -31l-31 -18zM354 502 q0 -68 26 -127.5t67.5 -105.5t98 -72.5t118.5 -26.5q61 0 116.5 26.5t97.5 72.5t67.5 105.5t25.5 127.5t-25.5 127t-67.5 105t-97.5 73t-116.5 27t-118 -27t-98.5 -73t-67.5 -105.5t-26 -126.5z" />
<glyph unicode="&#xf6;" horiz-adv-x="1325" d="M94 506q0 119 40 215t114 163.5t179 103.5t237 36q131 0 236.5 -37t179 -104.5t112.5 -164.5t39 -216q0 -117 -40 -213t-115 -165t-179 -106.5t-233 -37.5q-123 0 -226.5 34.5t-180.5 102t-120 165t-43 224.5zM348 1235q0 57 39 95t97 38q55 0 94 -38t39 -95t-39 -95 t-94 -38q-57 0 -96.5 38t-39.5 95zM354 502q0 -68 26 -127.5t67.5 -105.5t98 -72.5t118.5 -26.5q61 0 116.5 26.5t97.5 72.5t67.5 105.5t25.5 127.5t-25.5 127t-67.5 105t-97.5 73t-116.5 27t-118 -27t-98.5 -73t-67.5 -105.5t-26 -126.5zM710 1235q0 57 39 95t97 38 q55 0 94 -38t39 -95t-39 -95t-94 -38q-57 0 -96.5 38t-39.5 95z" />
<glyph unicode="&#xf7;" d="M51 401v168h1024v-168h-1024zM428 98q0 57 40 97.5t97 40.5t97 -40.5t40 -97.5t-39.5 -97t-97.5 -40q-57 0 -97 40t-40 97zM430 874q0 57 40 97.5t97 40.5t97.5 -40.5t40.5 -97.5t-40 -97t-98 -40q-57 0 -97 40t-40 97z" />
<glyph unicode="&#xf8;" horiz-adv-x="1325" d="M94 502q0 119 40 216t114 164.5t179 104.5t237 37q205 0 344 -88l104 98l111 -114l-97 -91q105 -132 105 -327q0 -117 -40 -213t-115 -165t-179 -106.5t-233 -37.5q-102 0 -188.5 23.5t-153.5 66.5l-115 -109l-111 117l105 98q-51 66 -79 146.5t-28 179.5zM354 502 q0 -76 35 -150l447 422q-39 29 -82 44.5t-90 15.5q-61 0 -118 -27t-98.5 -73t-67.5 -105.5t-26 -126.5zM492 229q37 -29 80.5 -44t91.5 -15q61 0 116.5 26.5t97.5 72.5t67.5 105.5t25.5 127.5q0 78 -35 147z" />
<glyph unicode="&#xf9;" horiz-adv-x="1257" d="M180 395v611h244v-621q0 -94 57.5 -151.5t157.5 -57.5q51 0 89 18.5t62.5 47t37 66.5t12.5 77v621h237v-611q0 -135 -33.5 -213t-113.5 -129q-53 -37 -120 -55t-179 -18q-115 0 -184.5 18t-124.5 55q-39 25 -66 54.5t-44 68.5t-24.5 92.5t-7.5 126.5zM250 1452h256 l270 -344h-217z" />
<glyph unicode="&#xfa;" horiz-adv-x="1257" d="M180 395v611h244v-621q0 -94 57.5 -151.5t157.5 -57.5q51 0 89 18.5t62.5 47t37 66.5t12.5 77v621h237v-611q0 -135 -33.5 -213t-113.5 -129q-53 -37 -120 -55t-179 -18q-115 0 -184.5 18t-124.5 55q-39 25 -66 54.5t-44 68.5t-24.5 92.5t-7.5 126.5zM487 1108l270 344 h267l-316 -344h-221z" />
<glyph unicode="&#xfb;" horiz-adv-x="1257" d="M180 395v611h244v-621q0 -94 57.5 -151.5t157.5 -57.5q51 0 89 18.5t62.5 47t37 66.5t12.5 77v621h237v-611q0 -135 -33.5 -213t-113.5 -129q-53 -37 -120 -55t-179 -18q-115 0 -184.5 18t-124.5 55q-39 25 -66 54.5t-44 68.5t-24.5 92.5t-7.5 126.5zM284 1108l252 344 h193l245 -344h-208l-136 180l-135 -180h-211z" />
<glyph unicode="&#xfc;" horiz-adv-x="1257" d="M180 395v611h244v-621q0 -94 57.5 -151.5t157.5 -57.5q51 0 89 18.5t62.5 47t37 66.5t12.5 77v621h237v-611q0 -135 -33.5 -213t-113.5 -129q-53 -37 -120 -55t-179 -18q-115 0 -184.5 18t-124.5 55q-39 25 -66 54.5t-44 68.5t-24.5 92.5t-7.5 126.5zM317 1235 q0 57 39 95t97 38q55 0 94 -38t39 -95t-39 -95t-94 -38q-57 0 -96.5 38t-39.5 95zM679 1235q0 57 39 95t97 38q55 0 94 -38t39 -95t-39 -95t-94 -38q-57 0 -96.5 38t-39.5 95z" />
<glyph unicode="&#xfd;" horiz-adv-x="978" d="M43 1006h264l187 -355l196 355h246l-338 -586v-420h-244v420zM346 1108l270 344h267l-316 -344h-221z" />
<glyph unicode="&#xfe;" horiz-adv-x="1013" d="M195 0v1006h243v-166h129q195 0 288 -75t93 -241q0 -186 -110.5 -274t-329.5 -88h-39q-16 0 -31 2v-164h-243zM438 350h70q92 0 141 42t49 118q0 66 -41 105.5t-108 39.5h-111v-305z" />
<glyph unicode="&#xff;" horiz-adv-x="978" d="M43 1006h264l187 -355l196 355h246l-338 -586v-420h-244v420zM184 1235q0 57 39 95t96 38q55 0 94 -38t39 -95t-39 -95t-94 -38q-57 0 -96 38t-39 95zM544 1235q0 57 39 95t96 38q55 0 94.5 -38t39.5 -95t-39 -95t-95 -38q-57 0 -96 38t-39 95z" />
<glyph unicode="&#x152;" horiz-adv-x="1880" d="M63 676q0 156 52.5 285t147.5 221t227.5 143t293.5 51q31 0 55.5 -1t47 -4t47 -7t57.5 -12h793v-219h-535v-334h432v-219h-432v-361h561v-219h-819q-37 -8 -64.5 -13t-50 -8.5t-46 -4.5t-50.5 -1q-158 0 -289 52.5t-226 145.5t-148.5 222t-53.5 283zM338 674 q0 -104 34 -193.5t93 -154t141 -100.5t178 -36q55 0 94.5 9.5t104.5 38.5v876q-68 27 -107.5 36t-93.5 9q-96 0 -177 -37t-140 -101.5t-93 -153.5t-34 -193z" />
<glyph unicode="&#x153;" horiz-adv-x="1585" d="M94 506q0 119 39 215t112.5 163.5t178 103.5t238.5 36q29 0 50 -3t39.5 -6t38 -6t41.5 -3h607v-191h-404v-207h328v-192h-328v-226h422v-190h-625q-25 0 -45 -3t-40.5 -7t-41 -7t-47.5 -3q-119 0 -222 33.5t-179 100t-119 165t-43 227.5zM348 502q0 -70 25.5 -130.5 t68.5 -105.5t100.5 -70.5t119.5 -25.5q20 0 44.5 5t77.5 28v600q-55 23 -80.5 27t-44.5 4q-61 0 -117.5 -26t-99.5 -71t-68.5 -105.5t-25.5 -129.5z" />
<glyph unicode="&#x178;" d="M4 1352h283l270 -529l285 529h282l-450 -772v-580h-258v580zM236 1575q0 57 39 95t96 38q55 0 94 -38t39 -95t-39 -95t-94 -38q-57 0 -96 38t-39 95zM617 1575q0 57 39 95t96 38q55 0 94 -38t39 -95t-39 -95t-94 -38q-57 0 -96 38t-39 95z" />
<glyph unicode="&#x2c6;" horiz-adv-x="1056" d="M190 1065l252 344h193l246 -344h-209l-135 180l-136 -180h-211z" />
<glyph unicode="&#x2dc;" horiz-adv-x="1056" d="M147 1225q47 33 72 47t51 26q29 14 60.5 22.5t60.5 8.5q20 0 37.5 -2t36 -10t43 -21.5t63.5 -35.5q31 -18 53.5 -25.5t49.5 -7.5q18 0 34.5 3t34 10t39 21.5t54.5 38.5l82 -122q-35 -35 -59.5 -52.5t-63.5 -33.5q-76 -33 -136 -33q-74 0 -174 55q-45 27 -63.5 33t-42.5 6 q-33 0 -56.5 -8t-62.5 -31l-31 -18z" />
<glyph unicode="&#x2000;" horiz-adv-x="905" />
<glyph unicode="&#x2001;" horiz-adv-x="1810" />
<glyph unicode="&#x2002;" horiz-adv-x="905" />
<glyph unicode="&#x2003;" horiz-adv-x="1810" />
<glyph unicode="&#x2004;" horiz-adv-x="603" />
<glyph unicode="&#x2005;" horiz-adv-x="452" />
<glyph unicode="&#x2006;" horiz-adv-x="301" />
<glyph unicode="&#x2007;" horiz-adv-x="301" />
<glyph unicode="&#x2008;" horiz-adv-x="226" />
<glyph unicode="&#x2009;" horiz-adv-x="362" />
<glyph unicode="&#x200a;" horiz-adv-x="100" />
<glyph unicode="&#x2010;" horiz-adv-x="565" d="M70 356v228h426v-228h-426z" />
<glyph unicode="&#x2011;" horiz-adv-x="565" d="M70 356v228h426v-228h-426z" />
<glyph unicode="&#x2012;" horiz-adv-x="565" d="M70 356v228h426v-228h-426z" />
<glyph unicode="&#x2013;" horiz-adv-x="1024" d="M0 391v170h1024v-170h-1024z" />
<glyph unicode="&#x2014;" horiz-adv-x="2048" d="M0 391v170h2048v-170h-2048z" />
<glyph unicode="&#x2018;" horiz-adv-x="514" d="M94 897q0 94 46 216t126 239h146q-12 -25 -20.5 -42.5t-14.5 -33.5t-13.5 -34.5t-15.5 -43.5t-13 -43t-9 -34.5t-6.5 -34t-4.5 -42.5l113 -272q-31 -14 -52.5 -23.5t-40 -14.5t-37.5 -7t-44 -2q-84 0 -122 42t-38 130z" />
<glyph unicode="&#x2019;" horiz-adv-x="514" d="M88 1348q31 14 52.5 23t40 14.5t38 7.5t43.5 2q164 0 164 -172q0 -94 -47 -216t-125 -239h-150l21 41q8 16 15 32.5t13.5 35t16.5 45.5q8 25 13 43t9.5 34.5t6.5 33t4 40.5z" />
<glyph unicode="&#x201a;" horiz-adv-x="514" d="M84 242q31 14 52.5 22t40 13.5t37.5 7.5t44 2q84 0 122 -41t38 -129q0 -94 -46 -216t-124 -239h-148q12 23 20.5 40t15.5 33.5t14 35.5l14 43q8 27 13 44t9 33.5t6.5 34t4.5 41.5z" />
<glyph unicode="&#x201c;" horiz-adv-x="894" d="M94 897q0 94 46 216t126 239h146q-12 -25 -20.5 -42.5t-14.5 -33.5t-13.5 -34.5t-15.5 -43.5t-13 -43t-9 -34.5t-6.5 -34t-4.5 -42.5l113 -272q-31 -14 -52.5 -23.5t-40 -14.5t-37.5 -7t-44 -2q-84 0 -122 42t-38 130zM473 897q0 94 46 216t126 239h146 q-12 -25 -20.5 -42.5t-14.5 -33.5t-13.5 -34.5t-15.5 -43.5t-13 -43t-9.5 -34.5t-6.5 -34t-4 -42.5l113 -272q-29 -14 -50.5 -23.5t-41 -14.5t-38 -7t-42.5 -2q-162 0 -162 172z" />
<glyph unicode="&#x201d;" horiz-adv-x="894" d="M88 1348q57 29 91 38t81 9q162 0 162 -172q0 -94 -46 -216t-126 -239h-146l21 41q8 16 14 32.5t13.5 35t15.5 45.5q8 25 13 43t9.5 34.5t6.5 33t4 40.5zM467 1348q57 29 91 38t81 9q162 0 162 -172q0 -94 -46 -216t-126 -239h-146l21 41q8 16 14 32.5t13.5 35t15.5 45.5 q8 25 13 43t9 34.5t6.5 33t4.5 40.5z" />
<glyph unicode="&#x201e;" horiz-adv-x="894" d="M84 242q31 14 52.5 22t40 13.5t37.5 7.5t44 2q84 0 122 -41t38 -129q0 -94 -46 -216t-124 -239h-148q12 23 20.5 40t15.5 33.5t14 35.5l14 43q8 27 13 44t9 33.5t6.5 34t4.5 41.5zM463 242q31 14 52.5 22t39.5 13.5t37.5 7.5t44.5 2q162 0 162 -170q0 -94 -47 -216 t-125 -239h-148q12 23 20.5 40t15.5 33.5t13 35.5l15 43q8 27 14 44t9 33.5t5 34t4 41.5z" />
<glyph unicode="&#x2022;" horiz-adv-x="720" d="M35 473q0 68 25.5 127t69.5 103.5t103.5 70t126.5 25.5q68 0 127.5 -25.5t103.5 -70t69.5 -103.5t25.5 -127t-25.5 -127t-69.5 -103t-103.5 -70t-127.5 -26t-127 26t-103 70t-69.5 103.5t-25.5 126.5z" />
<glyph unicode="&#x2026;" horiz-adv-x="1560" d="M94 137q0 70 52.5 119t127.5 49q59 0 102.5 -48t43.5 -114q0 -70 -53.5 -119t-128.5 -49q-29 0 -55.5 13.5t-46 35t-31 51t-11.5 62.5zM625 139q0 70 52 118t126 48q61 0 104 -47t43 -113q0 -70 -53 -119t-129 -49q-59 0 -101 48.5t-42 113.5zM1141 139q0 70 52 118 t126 48q61 0 104 -47t43 -113q0 -70 -53 -119t-129 -49q-59 0 -101 48.5t-42 113.5z" />
<glyph unicode="&#x202f;" horiz-adv-x="362" />
<glyph unicode="&#x2039;" horiz-adv-x="657" d="M51 463l502 399v-244l-205 -155l205 -154v-246z" />
<glyph unicode="&#x203a;" horiz-adv-x="657" d="M102 63v246l207 154l-207 155v244l502 -399z" />
<glyph unicode="&#x205f;" horiz-adv-x="452" />
<glyph unicode="&#x20ac;" horiz-adv-x="1187" d="M121 352v99l143 20v49q0 25 2 49h-145v99l168 24q47 172 173 271.5t308 99.5q41 0 79 -3t77 -13q51 -14 87 -31t95 -55l-117 -201q-53 45 -95 62.5t-97 17.5q-78 0 -139.5 -40t-96.5 -108h355v-123h-392q-2 -14 -3 -27.5t-1 -29.5v-18q0 -8 2 -19h394v-123h-367 q31 -72 88 -113.5t133 -41.5q61 0 114.5 19.5t131.5 70.5l90 -215q-27 -14 -46.5 -24.5t-33.5 -16.5q-66 -31 -136.5 -45.5t-141.5 -14.5q-186 0 -308.5 101.5t-160.5 279.5h-160z" />
<glyph unicode="&#x2122;" horiz-adv-x="1767" d="M94 1198v154h565v-154h-180v-504h-205v504h-180zM764 694v658h295l129 -400l12 -51h14l13 51l141 400h309v-658h-207v439h-12l-12 -91l-156 -348h-180l-141 363l-13 90h-12v-453h-180z" />
<glyph unicode="&#x25fc;" horiz-adv-x="1003" d="M0 0v1004h1004v-1004h-1004z" />
</font>
</defs>
</svg>
